<svg id="Layer_1" enable-background="new 0 0 100 100" height="100" viewBox="0 0 100 100" width="100"
     xmlns="http://www.w3.org/2000/svg">
	<g fill="#231f20">
		<path d="m89.805 5.754h1.508v7.374h-1.508z"/>
		<path d="m86.871 8.687h7.375v1.508h-7.375z"/>
		<path d="m62.766 5.754h1.508v7.374h-1.508z"/>
		<path d="m59.832 8.687h7.375v1.508h-7.375z"/>
		<path d="m35.727 5.754h1.508v7.374h-1.508z"/>
		<path d="m32.794 8.687h7.374v1.508h-7.374z"/>
		<path d="m8.687 5.754h1.509v7.374h-1.509z"/>
		<path d="m5.754 8.687h7.375v1.508h-7.375z"/>
		<path d="m89.805 32.793h1.508v7.375h-1.508z"/>
		<path d="m86.871 35.726h7.375v1.508h-7.375z"/>
		<path d="m62.766 32.793h1.508v7.375h-1.508z"/>
		<path d="m59.832 35.726h7.375v1.508h-7.375z"/>
		<path d="m35.727 32.793h1.508v7.375h-1.508z"/>
		<path d="m32.794 35.726h7.374v1.508h-7.374z"/>
		<path d="m8.687 32.793h1.509v7.375h-1.509z"/>
		<path d="m5.754 35.726h7.375v1.508h-7.375z"/>
		<path d="m89.805 59.832h1.508v7.375h-1.508z"/>
		<path d="m86.871 62.765h7.375v1.508h-7.375z"/>
		<path d="m62.766 59.832h1.508v7.375h-1.508z"/>
		<path d="m59.832 62.765h7.375v1.508h-7.375z"/>
		<path d="m35.727 59.832h1.508v7.375h-1.508z"/>
		<path d="m32.794 62.765h7.374v1.508h-7.374z"/>
		<path d="m8.687 59.832h1.509v7.375h-1.509z"/>
		<path d="m5.754 62.765h7.375v1.508h-7.375z"/>
		<path d="m89.805 86.871h1.508v7.375h-1.508z"/>
		<path d="m86.871 89.804h7.375v1.508h-7.375z"/>
		<path d="m76.285 73.352h1.508v7.375h-1.508z"/>
		<path d="m73.352 76.285h7.375v1.508h-7.375z"/>
		<path d="m49.246 73.352h1.508v7.375h-1.508z"/>
		<path d="m46.313 76.285h7.375v1.508h-7.375z"/>
		<path d="m22.207 73.352h1.508v7.375h-1.508z"/>
		<path d="m19.273 76.285h7.375v1.508h-7.375z"/>
		<path d="m76.285 46.313h1.508v7.375h-1.508z"/>
		<path d="m73.352 49.246h7.375v1.509h-7.375z"/>
		<path d="m49.246 46.313h1.508v7.375h-1.508z"/>
		<path d="m46.313 49.246h7.375v1.509h-7.375z"/>
		<path d="m22.207 46.313h1.508v7.375h-1.508z"/>
		<path d="m19.273 49.246h7.375v1.509h-7.375z"/>
		<path d="m76.285 19.273h1.508v7.375h-1.508z"/>
		<path d="m73.352 22.207h7.375v1.508h-7.375z"/>
		<path d="m49.246 19.273h1.508v7.375h-1.508z"/>
		<path d="m46.313 22.207h7.375v1.508h-7.375z"/>
		<path d="m22.207 19.273h1.508v7.375h-1.508z"/>
		<path d="m19.273 22.207h7.375v1.508h-7.375z"/>
		<path d="m62.766 86.871h1.508v7.375h-1.508z"/>
		<path d="m59.832 89.804h7.375v1.508h-7.375z"/>
		<path d="m35.727 86.871h1.508v7.375h-1.508z"/>
		<path d="m32.794 89.804h7.374v1.508h-7.374z"/>
		<path d="m8.687 86.871h1.509v7.375h-1.509z"/>
		<path d="m5.754 89.804h7.375v1.508h-7.375z"/>
	</g>
</svg>