<svg width="2000" height="1400" xmlns="http://www.w3.org/2000/svg" preserveAspectRatio="none">
  <path fill="#e7f2eb" d="M0 0h2000v1400H0z"/>
  <path d="M0 350h0c58.86-12.982 117.72-25.964 177-12 59.28 13.964 118.983 54.876 186 40 67.017-14.876 141.349-85.538 198-82 56.651 3.538 95.623 81.278 150 109 54.377 27.722 124.16 5.426 188-5s121.734-8.982 181-20c59.266-11.018 119.904-34.498 185-50 65.096-15.502 134.65-23.027 196-30 61.35-6.973 114.496-13.395 169-10 54.504 3.395 110.366 16.606 177 22 66.634 5.394 144.038 2.97 178 8 33.962 5.03 24.48 17.515 55 30" fill="none" stroke="#218646" stroke-width="16" stroke-linecap="round"/>
  <path d="M0 700h0c59.168 12.764 118.336 25.529 174 14s107.823-47.351 173-53c65.177-5.649 143.373 18.877 206 23 62.627 4.123 109.687-12.156 171 3s136.88 61.747 194 76c57.12 14.253 95.791-3.833 156-37s141.954-81.414 210-93c68.046-11.586 122.394 13.49 181 29 58.606 15.51 121.472 21.456 178 31 56.528 9.544 106.72 22.685 177 11 70.28-11.685 160.652-48.196 194-53 33.348-4.804 9.674 22.098 26 49" fill="none" stroke="#82bb98" stroke-width="16" stroke-linecap="round"/>
  <path d="M0 1050h0c53.193-26.32 106.385-52.642 172-57 65.615-4.358 143.652 13.245 206 41 62.348 27.755 109.008 65.66 166 80 56.992 14.34 124.315 5.116 183-15s108.73-51.124 173-67c64.27-15.876 142.765-16.62 206-5 63.235 11.62 111.212 35.606 162 54s104.388 31.197 169 28c64.612-3.197 140.236-22.393 206-15 65.764 7.393 121.667 41.375 185 18s134.095-104.107 164-124 18.952 21.054 48 62" fill="none" stroke="#5fa87a" stroke-width="16" stroke-linecap="round"/>
</svg>
